SplineFontDB: 3.2
FontName: FaxNouveau-Regular
FullName: Fax Nouveau
FamilyName: FaxNouveau
Weight: Regular
Copyright: Copyright (c) 2021, julio
UComments: "2021-7-8: Created with FontForge (http://fontforge.org)+AAoACgAA-Black Lives Matter, Trans Rights, Free Palestine"
Version: 001.000
ItalicAngle: -11
UnderlinePosition: -204
UnderlineWidth: 102
Ascent: 1638
Descent: 410
InvalidEm: 0
LayerCount: 2
Layer: 0 0 "Back" 1
Layer: 1 0 "Fore" 0
XUID: [1021 740 1527480683 6459800]
StyleMap: 0x0000
FSType: 0
OS2Version: 0
OS2_WeightWidthSlopeOnly: 0
OS2_UseTypoMetrics: 1
CreationTime: 1625806948
ModificationTime: 1625817831
OS2TypoAscent: 0
OS2TypoAOffset: 1
OS2TypoDescent: 0
OS2TypoDOffset: 1
OS2TypoLinegap: 184
OS2WinAscent: 0
OS2WinAOffset: 1
OS2WinDescent: 0
OS2WinDOffset: 1
HheadAscent: 0
HheadAOffset: 1
HheadDescent: 0
HheadDOffset: 1
MarkAttachClasses: 1
DEI: 91125
LangName: 1033
Encoding: ISO8859-1
UnicodeInterp: none
NameList: AGL For New Fonts
DisplaySize: -72
AntiAlias: 1
FitToEm: 0
WinInfo: 64 8 6
BeginPrivate: 0
EndPrivate
Grid
-2048 768 m 4
 4096 768 l 1028
  Named: "E middle"
-2048 1408 m 0
 4096 1408 l 1024
  Named: "actual height"
EndSplineSet
TeXData: 1 0 0 346030 173015 115343 0 1048576 115343 783286 444596 497025 792723 393216 433062 380633 303038 157286 324010 404750 52429 2506097 1059062 262144
BeginChars: 256 53

StartChar: A
Encoding: 65 65 0
Width: 1431
Flags: HW
LayerCount: 2
Fore
SplineSet
30 128 m 1
 30 0 l 1
 158 0 l 1
 286 0 l 1
 414 0 l 1
 414 128 l 1
 414 256 l 1
 414 384 l 1
 286 384 l 1
 286 256 l 1
 286 128 l 1
 158 128 l 1
 30 128 l 1
414 640 m 1
 414 512 l 1
 414 384 l 1
 542 384 l 1
 670 384 l 1
 798 384 l 1
 926 384 l 1
 1054 384 l 1
 1054 256 l 1
 1182 256 l 1
 1182 128 l 1
 1054 128 l 1
 926 128 l 1
 926 0 l 1
 1054 0 l 1
 1182 0 l 1
 1310 0 l 1
 1438 0 l 1
 1438 128 l 1
 1438 256 l 1
 1310 256 l 1
 1310 384 l 1
 1310 512 l 1
 1310 640 l 1
 1310 768 l 1
 1310 896 l 1
 1310 1024 l 1
 1182 1024 l 1
 1182 1152 l 1
 1182 1280 l 1
 1182 1408 l 1
 1054 1408 l 1
 926 1408 l 1
 926 1280 l 1
 926 1152 l 1
 798 1152 l 1
 798 1024 l 1
 926 1024 l 1
 1054 1024 l 1
 1054 896 l 1
 1054 768 l 1
 1054 640 l 1
 1054 512 l 1
 926 512 l 1
 798 512 l 1
 670 512 l 1
 542 512 l 1
 542 640 l 1
 414 640 l 1
542 768 m 1
 542 640 l 1
 670 640 l 1
 670 768 l 1
 542 768 l 1
670 896 m 1
 670 768 l 1
 798 768 l 1
 798 896 l 1
 798 1024 l 1
 670 1024 l 1
 670 896 l 1
EndSplineSet
Validated: 5
EndChar

StartChar: B
Encoding: 66 66 1
Width: 1195
Flags: HW
LayerCount: 2
Fore
SplineSet
36 0 m 1
 164 0 l 1
 292 0 l 1
 420 0 l 1
 548 0 l 1
 676 0 l 1
 804 0 l 1
 932 0 l 1
 932 128 l 1
 1060 128 l 1
 1060 256 l 1
 1188 256 l 1
 1188 384 l 1
 1188 512 l 1
 1188 640 l 1
 1060 640 l 1
 932 640 l 1
 932 512 l 1
 932 384 l 1
 932 256 l 1
 804 256 l 1
 804 128 l 1
 676 128 l 1
 548 128 l 1
 420 128 l 1
 420 256 l 1
 420 384 l 1
 548 384 l 1
 548 512 l 1
 548 640 l 1
 676 640 l 1
 804 640 l 1
 932 640 l 1
 932 768 l 1
 1060 768 l 1
 1060 896 l 1
 932 896 l 1
 804 896 l 1
 804 768 l 1
 676 768 l 1
 548 768 l 1
 548 896 l 1
 676 896 l 1
 676 1024 l 1
 676 1152 l 1
 676 1280 l 1
 804 1280 l 1
 932 1280 l 1
 1060 1280 l 1
 1060 1152 l 1
 1060 1024 l 1
 1060 896 l 1
 1188 896 l 1
 1188 1024 l 1
 1316 1024 l 1
 1316 1152 l 1
 1316 1280 l 1
 1316 1408 l 1
 1188 1408 l 1
 1060 1408 l 1
 932 1408 l 1
 804 1408 l 1
 676 1408 l 1
 548 1408 l 1
 420 1408 l 1
 292 1408 l 1
 292 1280 l 1
 420 1280 l 1
 420 1152 l 1
 420 1024 l 1
 420 896 l 1
 292 896 l 1
 292 768 l 1
 292 640 l 1
 292 512 l 1
 292 384 l 1
 164 384 l 1
 164 256 l 1
 164 128 l 1
 36 128 l 1
 36 0 l 1
EndSplineSet
Validated: 5
EndChar

StartChar: C
Encoding: 67 67 2
Width: 1315
Flags: HW
LayerCount: 2
Fore
SplineSet
928 1408 m 1
 1440 1408 l 1
 1568 1408 l 1
 1568 1280 l 1
 1568 1152 l 1
 1440 1152 l 1
 1440 1280 l 1
 1312 1280 l 1
 1184 1280 l 1
 1056 1280 l 1
 928 1280 l 1
 800 1280 l 1
 800 1152 l 1
 672 1152 l 1
 672 1024 l 1
 544 1024 l 1
 544 896 l 1
 544 768 l 1
 544 640 l 1
 416 640 l 1
 416 512 l 1
 416 384 l 1
 544 384 l 1
 544 256 l 1
 544 128 l 1
 672 128 l 1
 800 128 l 1
 928 128 l 1
 1056 128 l 1
 1184 128 l 1
 1184 256 l 1
 1312 256 l 1
 1312 128 l 1
 1312 0 l 1
 1184 0 l 1
 1056 0 l 1
 928 0 l 1
 800 0 l 1
 672 0 l 1
 544 0 l 1
 416 0 l 1
 288 0 l 1
 288 128 l 1
 160 128 l 1
 160 256 l 1
 160 384 l 1
 160 512 l 1
 160 640 l 1
 160 768 l 1
 160 896 l 1
 288 896 l 1
 288 1024 l 1
 416 1024 l 1
 416 1152 l 1
 416 1280 l 1
 544 1280 l 1
 672 1280 l 1
 672 1408 l 1
 800 1408 l 1
 928 1408 l 1
EndSplineSet
Validated: 1
EndChar

StartChar: D
Encoding: 68 68 3
Width: 1568
Flags: HW
LayerCount: 2
Fore
SplineSet
30 128 m 1
 158 128 l 1
 158 256 l 1
 158 384 l 1
 286 384 l 1
 286 512 l 1
 286 640 l 1
 286 768 l 1
 286 896 l 1
 414 896 l 1
 414 1024 l 1
 414 1152 l 1
 414 1280 l 1
 286 1280 l 1
 286 1408 l 1
 414 1408 l 1
 542 1408 l 1
 670 1408 l 1
 798 1408 l 1
 926 1408 l 1
 1054 1408 l 1
 1182 1408 l 1
 1310 1408 l 1
 1438 1408 l 1
 1438 1280 l 1
 1566 1280 l 1
 1566 1152 l 1
 1694 1152 l 1
 1694 1024 l 1
 1694 896 l 1
 1694 768 l 1
 1566 768 l 1
 1566 640 l 1
 1566 512 l 1
 1566 384 l 1
 1438 384 l 1
 1438 256 l 1
 1310 256 l 1
 1310 128 l 1
 1182 128 l 1
 1054 128 l 1
 1054 0 l 1
 926 0 l 1
 798 0 l 1
 670 0 l 1
 542 0 l 1
 414 0 l 1
 286 0 l 1
 158 0 l 1
 30 0 l 1
 30 128 l 1
670 640 m 1
 542 640 l 1
 542 512 l 1
 542 384 l 1
 542 256 l 1
 542 128 l 1
 670 128 l 1
 798 128 l 1
 926 128 l 1
 926 256 l 1
 1054 256 l 1
 1054 384 l 1
 1182 384 l 1
 1182 512 l 1
 1310 512 l 1
 1310 640 l 1
 1310 768 l 1
 1310 896 l 1
 1310 1024 l 1
 1310 1152 l 1
 1310 1280 l 1
 1182 1280 l 1
 1054 1280 l 1
 926 1280 l 1
 798 1280 l 1
 798 1152 l 1
 670 1152 l 1
 670 1024 l 1
 670 896 l 1
 670 768 l 1
 670 640 l 1
EndSplineSet
Validated: 1
EndChar

StartChar: E
Encoding: 69 69 4
Width: 1051
Flags: HW
LayerCount: 2
Fore
SplineSet
30 0 m 1
 30 128 l 1
 158 128 l 1
 158 256 l 1
 158 384 l 1
 286 384 l 1
 286 512 l 1
 286 640 l 1
 286 768 l 1
 286 896 l 1
 414 896 l 1
 414 1024 l 1
 414 1152 l 1
 414 1280 l 1
 286 1280 l 1
 286 1408 l 1
 414 1408 l 1
 542 1408 l 1
 670 1408 l 1
 798 1408 l 1
 926 1408 l 1
 1054 1408 l 1
 1182 1408 l 1
 1310 1408 l 1
 1310 1280 l 1
 1310 1152 l 1
 1182 1152 l 1
 1182 1280 l 1
 1054 1280 l 1
 926 1280 l 1
 798 1280 l 1
 670 1280 l 1
 670 1152 l 1
 670 1024 l 1
 670 896 l 1
 542 896 l 1
 542 768 l 1
 670 768 l 1
 798 768 l 1
 926 768 l 1
 926 896 l 1
 1054 896 l 1
 1054 768 l 1
 1054 640 l 1
 926 640 l 1
 798 640 l 1
 670 640 l 1
 542 640 l 1
 542 512 l 1
 542 384 l 1
 414 384 l 1
 414 256 l 1
 414 128 l 1
 542 128 l 1
 670 128 l 1
 798 128 l 1
 926 128 l 1
 926 256 l 1
 1054 256 l 1
 1054 128 l 1
 1054 0 l 1
 926 0 l 1
 798 0 l 1
 670 0 l 1
 542 0 l 1
 414 0 l 1
 286 0 l 1
 158 0 l 1
 30 0 l 1
EndSplineSet
Validated: 1
EndChar

StartChar: F
Encoding: 70 70 5
Width: 1051
Flags: HW
LayerCount: 2
Fore
SplineSet
30 0 m 1
 30 128 l 1
 158 128 l 1
 158 256 l 1
 158 384 l 1
 286 384 l 1
 286 512 l 1
 286 640 l 1
 286 768 l 1
 286 896 l 1
 414 896 l 1
 414 1024 l 1
 414 1152 l 1
 414 1280 l 1
 286 1280 l 1
 286 1408 l 1
 414 1408 l 1
 542 1408 l 1
 670 1408 l 1
 798 1408 l 1
 926 1408 l 1
 1054 1408 l 1
 1182 1408 l 1
 1310 1408 l 1
 1310 1280 l 1
 1310 1152 l 1
 1182 1152 l 1
 1182 1280 l 1
 1054 1280 l 1
 926 1280 l 1
 798 1280 l 1
 670 1280 l 1
 670 1152 l 1
 670 1024 l 1
 670 896 l 1
 542 896 l 1
 542 768 l 1
 670 768 l 1
 798 768 l 1
 926 768 l 1
 926 896 l 1
 1054 896 l 1
 1054 768 l 1
 1054 640 l 1
 1054 512 l 1
 926 512 l 1
 926 640 l 1
 798 640 l 1
 670 640 l 1
 542 640 l 1
 542 512 l 1
 542 384 l 1
 414 384 l 1
 414 256 l 1
 414 128 l 1
 542 128 l 1
 542 0 l 1
 414 0 l 1
 286 0 l 1
 158 0 l 1
 30 0 l 1
EndSplineSet
Validated: 1
EndChar

StartChar: G
Encoding: 71 71 6
Width: 1442
Flags: HW
LayerCount: 2
Fore
SplineSet
928 1408 m 1
 1440 1408 l 1
 1568 1408 l 1
 1568 1280 l 1
 1568 1152 l 1
 1440 1152 l 1
 1440 1280 l 1
 1312 1280 l 1
 1056 1280 l 1
 928 1280 l 1
 800 1280 l 1
 800 1152 l 1
 672 1152 l 1
 672 1024 l 1
 544 1024 l 1
 544 896 l 1
 544 768 l 1
 544 640 l 1
 416 640 l 1
 416 512 l 1
 416 384 l 1
 544 384 l 1
 544 256 l 1
 544 128 l 1
 672 128 l 1
 800 128 l 1
 928 128 l 1
 1056 128 l 1
 1056 256 l 1
 1056 384 l 1
 1056 512 l 1
 928 512 l 1
 928 640 l 1
 1056 640 l 1
 1184 640 l 1
 1312 640 l 1
 1440 640 l 1
 1568 640 l 1
 1568 512 l 1
 1440 512 l 1
 1312 512 l 1
 1312 384 l 1
 1312 256 l 1
 1312 128 l 1
 1312 0 l 1
 1184 0 l 1
 1056 0 l 1
 928 0 l 1
 800 0 l 1
 672 0 l 1
 544 0 l 1
 416 0 l 1
 288 0 l 1
 288 128 l 1
 288 256 l 1
 160 256 l 1
 160 384 l 1
 160 512 l 1
 160 640 l 1
 160 768 l 1
 160 896 l 1
 288 896 l 1
 288 1024 l 1
 416 1024 l 1
 416 1152 l 1
 416 1280 l 1
 544 1280 l 1
 672 1280 l 1
 672 1408 l 1
 800 1408 l 1
 928 1408 l 1
EndSplineSet
Validated: 1
EndChar

StartChar: H
Encoding: 72 72 7
Width: 1576
Flags: HW
LayerCount: 2
Fore
SplineSet
30 0 m 1
 30 128 l 1
 158 128 l 1
 158 256 l 1
 158 384 l 1
 286 384 l 1
 286 512 l 1
 286 640 l 1
 286 768 l 1
 286 896 l 1
 414 896 l 1
 414 1024 l 1
 414 1152 l 1
 414 1280 l 1
 286 1280 l 1
 286 1408 l 1
 414 1408 l 1
 542 1408 l 1
 670 1408 l 1
 798 1408 l 1
 926 1408 l 1
 926 1280 l 1
 798 1280 l 1
 670 1280 l 1
 670 1152 l 1
 670 1024 l 1
 670 896 l 1
 542 896 l 1
 542 768 l 1
 670 768 l 1
 798 768 l 1
 926 768 l 1
 1054 768 l 1
 1182 768 l 1
 1182 896 l 1
 1310 896 l 1
 1310 1024 l 1
 1310 1152 l 1
 1310 1280 l 1
 1182 1280 l 1
 1182 1408 l 1
 1310 1408 l 1
 1438 1408 l 1
 1566 1408 l 1
 1694 1408 l 1
 1822 1408 l 1
 1822 1280 l 1
 1694 1280 l 1
 1566 1280 l 1
 1566 1152 l 1
 1566 1024 l 1
 1566 896 l 1
 1566 768 l 1
 1438 768 l 1
 1438 640 l 1
 1438 512 l 1
 1438 384 l 1
 1438 256 l 1
 1310 256 l 1
 1310 128 l 1
 1438 128 l 1
 1438 0 l 1
 1310 0 l 1
 1182 0 l 1
 1054 0 l 1
 926 0 l 1
 926 128 l 1
 1054 128 l 1
 1054 256 l 1
 1054 384 l 1
 1182 384 l 1
 1182 512 l 1
 1182 640 l 1
 1054 640 l 1
 926 640 l 1
 798 640 l 1
 670 640 l 1
 542 640 l 1
 542 512 l 1
 542 384 l 1
 414 384 l 1
 414 256 l 1
 414 128 l 1
 542 128 l 1
 542 0 l 1
 414 0 l 1
 286 0 l 1
 158 0 l 1
 30 0 l 1
EndSplineSet
Validated: 1
EndChar

StartChar: I
Encoding: 73 73 8
Width: 689
Flags: HW
LayerCount: 2
Fore
SplineSet
48 0 m 1
 48 128 l 1
 176 128 l 1
 176 256 l 1
 176 384 l 1
 304 384 l 1
 304 512 l 1
 304 640 l 1
 304 768 l 1
 304 896 l 1
 432 896 l 1
 432 1024 l 1
 432 1152 l 1
 432 1280 l 1
 304 1280 l 1
 304 1408 l 1
 432 1408 l 1
 560 1408 l 1
 688 1408 l 1
 816 1408 l 1
 944 1408 l 1
 944 1280 l 1
 816 1280 l 1
 688 1280 l 1
 688 1152 l 1
 688 1024 l 1
 688 896 l 1
 688 768 l 1
 560 768 l 1
 560 640 l 1
 560 512 l 1
 560 384 l 1
 560 256 l 1
 432 256 l 1
 432 128 l 1
 560 128 l 1
 560 0 l 1
 432 0 l 1
 304 0 l 1
 176 0 l 1
 48 0 l 1
EndSplineSet
Validated: 1
EndChar

StartChar: v
Encoding: 118 118 9
Width: 1304
Flags: HW
LayerCount: 2
Fore
SplineSet
276 1408 m 1
 276 1280 l 1
 276 1152 l 1
 404 1152 l 1
 404 1024 l 1
 404 896 l 1
 404 768 l 1
 404 640 l 1
 404 512 l 1
 404 384 l 1
 404 256 l 1
 532 256 l 1
 532 128 l 1
 532 0 l 1
 660 0 l 1
 788 0 l 1
 788 128 l 1
 788 256 l 1
 916 256 l 1
 916 384 l 1
 788 384 l 1
 660 384 l 1
 660 512 l 1
 660 640 l 1
 660 768 l 1
 660 896 l 1
 660 1024 l 1
 660 1152 l 1
 660 1280 l 1
 788 1280 l 1
 788 1408 l 1
 660 1408 l 1
 532 1408 l 1
 404 1408 l 1
 276 1408 l 1
916 640 m 1
 916 512 l 1
 916 384 l 1
 1044 384 l 1
 1044 512 l 1
 1044 640 l 1
 916 640 l 1
1044 896 m 1
 1044 768 l 1
 1044 640 l 1
 1172 640 l 1
 1172 768 l 1
 1172 896 l 1
 1044 896 l 1
1172 1024 m 1
 1172 896 l 1
 1300 896 l 1
 1300 1024 l 1
 1172 1024 l 1
1300 1280 m 1
 1300 1152 l 1
 1300 1024 l 1
 1428 1024 l 1
 1428 1152 l 1
 1428 1280 l 1
 1556 1280 l 1
 1556 1408 l 1
 1428 1408 l 1
 1300 1408 l 1
 1300 1280 l 1
EndSplineSet
EndChar

StartChar: J
Encoding: 74 74 10
Width: 1072
Flags: HW
LayerCount: 2
Fore
SplineSet
52 -128 m 1
 52 0 l 1
 180 0 l 1
 180 -128 l 1
 308 -128 l 1
 436 -128 l 1
 436 0 l 1
 564 0 l 1
 564 128 l 1
 564 256 l 1
 564 384 l 1
 564 512 l 1
 692 512 l 1
 692 640 l 1
 692 768 l 1
 692 896 l 1
 692 1024 l 1
 820 1024 l 1
 820 1152 l 1
 820 1280 l 1
 692 1280 l 1
 692 1408 l 1
 820 1408 l 1
 948 1408 l 1
 1076 1408 l 1
 1204 1408 l 1
 1332 1408 l 1
 1332 1280 l 1
 1204 1280 l 1
 1076 1280 l 1
 1076 1152 l 1
 1076 1024 l 1
 1076 896 l 1
 948 896 l 1
 948 768 l 1
 948 640 l 1
 948 512 l 1
 948 384 l 1
 820 384 l 1
 820 256 l 1
 820 128 l 1
 820 0 l 1
 692 0 l 1
 692 -128 l 1
 692 -256 l 1
 564 -256 l 1
 436 -256 l 1
 308 -256 l 1
 180 -256 l 1
 52 -256 l 1
 52 -128 l 1
EndSplineSet
Validated: 1
EndChar

StartChar: K
Encoding: 75 75 11
Width: 1318
Flags: HW
LayerCount: 2
Fore
SplineSet
36 128 m 1
 36 0 l 1
 164 0 l 1
 292 0 l 1
 420 0 l 1
 548 0 l 1
 548 128 l 1
 420 128 l 1
 420 256 l 1
 420 384 l 1
 548 384 l 1
 548 512 l 1
 548 640 l 1
 676 640 l 1
 676 512 l 1
 804 512 l 1
 804 384 l 1
 804 256 l 1
 932 256 l 1
 932 128 l 1
 804 128 l 1
 804 0 l 1
 932 0 l 1
 1060 0 l 1
 1188 0 l 1
 1316 0 l 1
 1316 128 l 1
 1188 128 l 1
 1188 256 l 1
 1060 256 l 1
 1060 384 l 1
 1060 512 l 1
 932 512 l 1
 932 640 l 1
 932 768 l 1
 932 896 l 1
 804 896 l 1
 676 896 l 1
 676 768 l 1
 548 768 l 1
 548 896 l 1
 676 896 l 1
 676 1024 l 1
 676 1152 l 1
 676 1280 l 1
 804 1280 l 1
 804 1408 l 1
 676 1408 l 1
 548 1408 l 1
 420 1408 l 1
 292 1408 l 1
 292 1280 l 1
 420 1280 l 1
 420 1152 l 1
 420 1024 l 1
 420 896 l 1
 292 896 l 1
 292 768 l 1
 292 640 l 1
 292 512 l 1
 292 384 l 1
 164 384 l 1
 164 256 l 1
 164 128 l 1
 36 128 l 1
932 1024 m 1
 932 896 l 1
 1060 896 l 1
 1060 1024 l 1
 932 1024 l 1
1060 1408 m 1
 1060 1280 l 1
 1188 1280 l 1
 1188 1152 l 1
 1316 1152 l 1
 1316 1280 l 1
 1444 1280 l 1
 1444 1408 l 1
 1316 1408 l 1
 1188 1408 l 1
 1060 1408 l 1
1060 1024 m 1
 1188 1024 l 1
 1188 1152 l 1
 1060 1152 l 1
 1060 1024 l 1
EndSplineSet
Validated: 5
EndChar

StartChar: L
Encoding: 76 76 12
Width: 1160
Flags: HW
LayerCount: 2
Fore
SplineSet
30 128 m 1
 30 0 l 1
 158 0 l 1
 286 0 l 1
 414 0 l 1
 542 0 l 1
 670 0 l 1
 798 0 l 1
 926 0 l 1
 1054 0 l 1
 1054 128 l 1
 926 128 l 1
 798 128 l 1
 670 128 l 1
 542 128 l 1
 414 128 l 1
 414 256 l 1
 542 256 l 1
 542 384 l 1
 542 512 l 1
 542 640 l 1
 542 768 l 1
 670 768 l 1
 670 896 l 1
 670 1024 l 1
 670 1152 l 1
 670 1280 l 1
 798 1280 l 1
 926 1280 l 1
 926 1408 l 1
 798 1408 l 1
 670 1408 l 1
 542 1408 l 1
 414 1408 l 1
 286 1408 l 1
 286 1280 l 1
 414 1280 l 1
 414 1152 l 1
 414 1024 l 1
 414 896 l 1
 286 896 l 1
 286 768 l 1
 286 640 l 1
 286 512 l 1
 286 384 l 1
 158 384 l 1
 158 256 l 1
 158 128 l 1
 30 128 l 1
1054 128 m 1
 1182 128 l 1
 1182 256 l 1
 1054 256 l 1
 1054 128 l 1
EndSplineSet
Validated: 5
EndChar

StartChar: M
Encoding: 77 77 13
Width: 1708
Flags: HW
LayerCount: 2
Fore
SplineSet
36 128 m 1
 36 0 l 1
 164 0 l 1
 292 0 l 1
 420 0 l 1
 420 128 l 1
 292 128 l 1
 292 256 l 1
 420 256 l 1
 420 384 l 1
 420 512 l 1
 420 640 l 1
 420 768 l 1
 548 768 l 1
 548 896 l 1
 548 1024 l 1
 676 1024 l 1
 676 896 l 1
 676 768 l 1
 676 640 l 1
 676 512 l 1
 676 384 l 1
 804 384 l 1
 804 256 l 1
 804 128 l 1
 932 128 l 1
 932 256 l 1
 932 384 l 1
 1060 384 l 1
 1060 512 l 1
 932 512 l 1
 932 640 l 1
 932 768 l 1
 932 896 l 1
 804 896 l 1
 804 1024 l 1
 804 1152 l 1
 804 1280 l 1
 804 1408 l 1
 676 1408 l 1
 548 1408 l 1
 420 1408 l 1
 292 1408 l 1
 292 1280 l 1
 420 1280 l 1
 420 1152 l 1
 420 1024 l 1
 420 896 l 1
 292 896 l 1
 292 768 l 1
 292 640 l 1
 292 512 l 1
 292 384 l 1
 164 384 l 1
 164 256 l 1
 164 128 l 1
 36 128 l 1
1060 768 m 1
 1060 640 l 1
 1060 512 l 1
 1188 512 l 1
 1188 640 l 1
 1316 640 l 1
 1316 768 l 1
 1316 896 l 1
 1188 896 l 1
 1188 768 l 1
 1060 768 l 1
1188 128 m 1
 1188 0 l 1
 1316 0 l 1
 1444 0 l 1
 1572 0 l 1
 1700 0 l 1
 1700 128 l 1
 1572 128 l 1
 1572 256 l 1
 1572 384 l 1
 1572 512 l 1
 1700 512 l 1
 1700 640 l 1
 1700 768 l 1
 1700 896 l 1
 1700 1024 l 1
 1828 1024 l 1
 1828 1152 l 1
 1828 1280 l 1
 1956 1280 l 1
 1956 1408 l 1
 1828 1408 l 1
 1700 1408 l 1
 1572 1408 l 1
 1572 1280 l 1
 1444 1280 l 1
 1444 1152 l 1
 1444 1024 l 1
 1572 1024 l 1
 1572 896 l 1
 1444 896 l 1
 1444 768 l 1
 1444 640 l 1
 1444 512 l 1
 1444 384 l 1
 1316 384 l 1
 1316 256 l 1
 1316 128 l 1
 1188 128 l 1
1316 896 m 1
 1444 896 l 1
 1444 1024 l 1
 1316 1024 l 1
 1316 896 l 1
EndSplineSet
Validated: 5
EndChar

StartChar: N
Encoding: 78 78 14
Width: 1444
Flags: HW
LayerCount: 2
Fore
SplineSet
28 0 m 1
 28 128 l 1
 156 128 l 1
 156 256 l 1
 156 384 l 1
 284 384 l 1
 284 512 l 1
 284 640 l 1
 284 768 l 1
 284 896 l 1
 412 896 l 1
 412 1024 l 1
 412 1152 l 1
 412 1280 l 1
 284 1280 l 1
 284 1408 l 1
 412 1408 l 1
 540 1408 l 1
 668 1408 l 1
 668 1280 l 1
 796 1280 l 1
 796 1152 l 1
 796 1024 l 1
 924 1024 l 1
 924 896 l 1
 924 768 l 1
 1052 768 l 1
 1052 640 l 1
 1052 512 l 1
 1180 512 l 1
 1180 640 l 1
 1308 640 l 1
 1308 768 l 1
 1308 896 l 1
 1308 1024 l 1
 1308 1152 l 1
 1436 1152 l 1
 1436 1280 l 1
 1308 1280 l 1
 1308 1408 l 1
 1436 1408 l 1
 1564 1408 l 1
 1692 1408 l 1
 1692 1280 l 1
 1564 1280 l 1
 1564 1152 l 1
 1564 1024 l 1
 1436 1024 l 1
 1436 896 l 1
 1436 768 l 1
 1436 640 l 1
 1436 512 l 1
 1308 512 l 1
 1308 384 l 1
 1308 256 l 1
 1308 128 l 1
 1308 0 l 1
 1180 0 l 1
 1052 0 l 1
 1052 128 l 1
 924 128 l 1
 924 256 l 1
 924 384 l 1
 924 512 l 1
 796 512 l 1
 796 640 l 1
 796 768 l 1
 668 768 l 1
 668 896 l 1
 668 1024 l 1
 540 1024 l 1
 540 896 l 1
 540 768 l 1
 412 768 l 1
 412 640 l 1
 412 512 l 1
 412 384 l 1
 412 256 l 1
 284 256 l 1
 284 128 l 1
 412 128 l 1
 412 0 l 1
 284 0 l 1
 156 0 l 1
 28 0 l 1
EndSplineSet
Validated: 1
EndChar

StartChar: O
Encoding: 79 79 15
Width: 1560
Flags: HW
LayerCount: 2
Fore
SplineSet
664 128 m 1
 536 128 l 1
 536 256 l 1
 408 256 l 1
 408 384 l 1
 408 512 l 1
 408 640 l 1
 408 768 l 1
 536 768 l 1
 536 896 l 1
 536 1024 l 1
 664 1024 l 1
 664 1152 l 1
 792 1152 l 1
 792 1280 l 1
 920 1280 l 1
 1048 1280 l 1
 1176 1280 l 1
 1304 1280 l 1
 1304 1152 l 1
 1304 1024 l 1
 1432 1024 l 1
 1432 896 l 1
 1304 896 l 1
 1304 768 l 1
 1304 640 l 1
 1304 512 l 1
 1176 512 l 1
 1176 384 l 1
 1176 256 l 1
 1048 256 l 1
 1048 128 l 1
 1176 128 l 1
 1304 128 l 1
 1304 256 l 1
 1432 256 l 1
 1432 384 l 1
 1432 512 l 1
 1560 512 l 1
 1560 640 l 1
 1560 768 l 1
 1688 768 l 1
 1688 896 l 1
 1688 1024 l 1
 1688 1152 l 1
 1560 1152 l 1
 1560 1280 l 1
 1432 1280 l 1
 1432 1408 l 1
 1304 1408 l 1
 1176 1408 l 1
 1048 1408 l 1
 920 1408 l 1
 792 1408 l 1
 664 1408 l 1
 664 1280 l 1
 536 1280 l 1
 536 1152 l 1
 408 1152 l 1
 408 1024 l 1
 280 1024 l 1
 280 896 l 1
 280 768 l 1
 152 768 l 1
 152 640 l 1
 152 512 l 1
 152 384 l 1
 152 256 l 1
 152 128 l 1
 280 128 l 1
 280 0 l 1
 408 0 l 1
 536 0 l 1
 664 0 l 1
 792 0 l 1
 920 0 l 1
 1048 0 l 1
 1048 128 l 1
 920 128 l 1
 792 128 l 1
 664 128 l 1
EndSplineSet
Validated: 5
EndChar

StartChar: P
Encoding: 80 80 16
Width: 1196
Flags: HW
LayerCount: 2
Fore
SplineSet
48 128 m 1
 176 128 l 1
 176 256 l 1
 176 384 l 1
 304 384 l 1
 304 512 l 1
 304 640 l 1
 304 768 l 1
 304 896 l 1
 432 896 l 1
 432 1024 l 1
 432 1152 l 1
 432 1280 l 1
 304 1280 l 1
 304 1408 l 1
 432 1408 l 1
 560 1408 l 1
 688 1408 l 1
 816 1408 l 1
 944 1408 l 1
 1072 1408 l 1
 1200 1408 l 1
 1328 1408 l 1
 1328 1280 l 1
 1456 1280 l 1
 1456 1152 l 1
 1456 1024 l 1
 1328 1024 l 1
 1328 896 l 1
 1328 768 l 1
 1200 768 l 1
 1072 768 l 1
 1072 640 l 1
 944 640 l 1
 816 640 l 1
 688 640 l 1
 560 640 l 1
 560 512 l 1
 560 384 l 1
 560 256 l 1
 432 256 l 1
 432 128 l 1
 560 128 l 1
 560 0 l 1
 432 0 l 1
 304 0 l 1
 176 0 l 1
 48 0 l 1
 48 128 l 1
816 1280 m 1
 688 1280 l 1
 688 1152 l 1
 688 1024 l 1
 688 896 l 1
 688 768 l 1
 816 768 l 1
 944 768 l 1
 944 896 l 1
 1072 896 l 1
 1072 1024 l 1
 1072 1152 l 1
 1072 1280 l 1
 944 1280 l 1
 816 1280 l 1
EndSplineSet
Validated: 1
EndChar

StartChar: Q
Encoding: 81 81 17
Width: 1560
Flags: HW
LayerCount: 2
Fore
SplineSet
1180 1280 m 1
 1308 1280 l 1
 1308 1152 l 1
 1308 1024 l 1
 1436 1024 l 1
 1436 896 l 1
 1308 896 l 1
 1308 768 l 1
 1308 640 l 1
 1308 512 l 1
 1180 512 l 1
 1180 384 l 1
 1180 256 l 1
 1052 256 l 1
 1052 128 l 1
 1180 128 l 1
 1308 128 l 1
 1308 256 l 1
 1436 256 l 1
 1436 384 l 1
 1564 384 l 1
 1564 512 l 1
 1564 640 l 1
 1692 640 l 1
 1692 768 l 1
 1692 896 l 1
 1692 1024 l 1
 1692 1152 l 1
 1692 1280 l 1
 1564 1280 l 1
 1564 1408 l 1
 1436 1408 l 1
 1308 1408 l 1
 1180 1408 l 1
 1052 1408 l 1
 924 1408 l 1
 796 1408 l 1
 668 1408 l 1
 668 1280 l 1
 540 1280 l 1
 540 1152 l 1
 412 1152 l 1
 412 1024 l 1
 284 1024 l 1
 284 896 l 1
 284 768 l 1
 156 768 l 1
 156 640 l 1
 156 512 l 1
 156 384 l 1
 156 256 l 1
 284 256 l 1
 284 128 l 1
 284 0 l 1
 412 0 l 1
 540 0 l 1
 668 0 l 1
 796 0 l 1
 796 -128 l 1
 924 -128 l 1
 924 -256 l 1
 1052 -256 l 1
 1180 -256 l 1
 1180 -384 l 1
 1308 -384 l 1
 1436 -384 l 1
 1564 -384 l 1
 1692 -384 l 1
 1692 -256 l 1
 1564 -256 l 1
 1436 -256 l 1
 1308 -256 l 1
 1308 -128 l 1
 1180 -128 l 1
 1052 -128 l 1
 1052 0 l 1
 1052 128 l 1
 924 128 l 1
 796 128 l 1
 668 128 l 1
 540 128 l 1
 540 256 l 1
 412 256 l 1
 412 384 l 1
 412 512 l 1
 412 640 l 1
 540 640 l 1
 540 768 l 1
 540 896 l 1
 540 1024 l 1
 668 1024 l 1
 668 1152 l 1
 796 1152 l 1
 796 1280 l 1
 924 1280 l 1
 1052 1280 l 1
 1180 1280 l 1
EndSplineSet
Validated: 5
EndChar

StartChar: R
Encoding: 82 82 18
Width: 1312
Flags: HW
LayerCount: 2
Fore
SplineSet
30 128 m 1
 158 128 l 1
 158 256 l 1
 158 384 l 1
 286 384 l 1
 286 512 l 1
 286 640 l 1
 286 768 l 1
 286 896 l 1
 414 896 l 1
 414 1024 l 1
 414 1152 l 1
 414 1280 l 1
 286 1280 l 1
 286 1408 l 1
 414 1408 l 1
 542 1408 l 1
 670 1408 l 1
 798 1408 l 1
 926 1408 l 1
 1054 1408 l 1
 1182 1408 l 1
 1310 1408 l 1
 1310 1280 l 1
 1310 1152 l 1
 1310 1024 l 1
 1310 896 l 1
 1182 896 l 1
 1182 768 l 1
 1054 768 l 1
 1054 640 l 1
 926 640 l 1
 926 512 l 1
 1054 512 l 1
 1054 384 l 1
 1054 256 l 1
 1182 256 l 1
 1182 128 l 1
 1310 128 l 1
 1310 0 l 1
 1182 0 l 1
 1054 0 l 1
 926 0 l 1
 926 128 l 1
 798 128 l 1
 798 256 l 1
 798 384 l 1
 798 512 l 1
 670 512 l 1
 670 640 l 1
 542 640 l 1
 542 512 l 1
 542 384 l 1
 414 384 l 1
 414 256 l 1
 414 128 l 1
 542 128 l 1
 542 0 l 1
 414 0 l 1
 286 0 l 1
 158 0 l 1
 30 0 l 1
 30 128 l 1
670 896 m 1
 542 896 l 1
 542 768 l 1
 670 768 l 1
 798 768 l 1
 926 768 l 1
 926 896 l 1
 1054 896 l 1
 1054 1024 l 1
 1054 1152 l 1
 1054 1280 l 1
 926 1280 l 1
 798 1280 l 1
 670 1280 l 1
 670 1152 l 1
 670 1024 l 1
 670 896 l 1
EndSplineSet
Validated: 1
EndChar

StartChar: S
Encoding: 83 83 19
Width: 1076
Flags: HW
LayerCount: 2
Fore
SplineSet
692 1408 m 1
 1076 1408 l 1
 1204 1408 l 1
 1332 1408 l 1
 1332 1280 l 1
 1204 1280 l 1
 1204 1152 l 1
 1076 1152 l 1
 1076 1280 l 1
 948 1280 l 1
 820 1280 l 1
 692 1280 l 1
 564 1280 l 1
 564 1152 l 1
 564 1024 l 1
 692 1024 l 1
 692 896 l 1
 820 896 l 1
 820 768 l 1
 948 768 l 1
 948 640 l 1
 1076 640 l 1
 1076 512 l 1
 1076 384 l 1
 1076 256 l 1
 1076 128 l 1
 948 128 l 1
 820 128 l 1
 820 0 l 1
 692 0 l 1
 564 0 l 1
 436 0 l 1
 308 0 l 1
 180 0 l 1
 52 0 l 1
 52 128 l 1
 52 256 l 1
 180 256 l 1
 308 256 l 1
 308 128 l 1
 436 128 l 1
 564 128 l 1
 692 128 l 1
 692 256 l 1
 820 256 l 1
 820 384 l 1
 692 384 l 1
 692 512 l 1
 692 640 l 1
 564 640 l 1
 564 768 l 1
 436 768 l 1
 436 896 l 1
 308 896 l 1
 308 1024 l 1
 308 1152 l 1
 308 1280 l 1
 436 1280 l 1
 436 1408 l 1
 564 1408 l 1
 692 1408 l 1
EndSplineSet
Validated: 1
EndChar

StartChar: T
Encoding: 84 84 20
Width: 1296
Flags: HW
LayerCount: 2
Fore
SplineSet
1556 1408 m 1
 1556 1280 l 1
 1556 1152 l 1
 1428 1152 l 1
 1428 1280 l 1
 1300 1280 l 1
 1172 1280 l 1
 1044 1280 l 1
 1044 1152 l 1
 1044 1024 l 1
 1044 896 l 1
 916 896 l 1
 916 768 l 1
 916 640 l 1
 916 512 l 1
 916 384 l 1
 788 384 l 1
 788 256 l 1
 788 128 l 1
 916 128 l 1
 916 0 l 1
 788 0 l 1
 660 0 l 1
 532 0 l 1
 404 0 l 1
 276 0 l 1
 276 128 l 1
 404 128 l 1
 532 128 l 1
 532 256 l 1
 532 384 l 1
 532 512 l 1
 660 512 l 1
 660 640 l 1
 660 768 l 1
 660 896 l 1
 660 1024 l 1
 788 1024 l 1
 788 1152 l 1
 788 1280 l 1
 660 1280 l 1
 532 1280 l 1
 404 1280 l 1
 404 1152 l 1
 276 1152 l 1
 276 1280 l 1
 276 1408 l 1
 404 1408 l 1
 532 1408 l 1
 660 1408 l 1
 788 1408 l 1
 916 1408 l 1
 1044 1408 l 1
 1172 1408 l 1
 1300 1408 l 1
 1428 1408 l 1
 1556 1408 l 1
EndSplineSet
Validated: 1
EndChar

StartChar: U
Encoding: 85 85 21
Width: 1428
Flags: HWO
LayerCount: 2
Fore
SplineSet
792 0 m 1
 920 0 l 1
 1048 0 l 1
 1048 128 l 1
 920 128 l 1
 792 128 l 1
 664 128 l 1
 536 128 l 1
 536 256 l 1
 536 384 l 1
 536 512 l 1
 536 640 l 1
 536 768 l 1
 536 896 l 1
 664 896 l 1
 664 1024 l 1
 664 1152 l 1
 664 1280 l 1
 792 1280 l 1
 920 1280 l 1
 920 1408 l 1
 792 1408 l 1
 664 1408 l 1
 536 1408 l 1
 408 1408 l 1
 280 1408 l 1
 280 1280 l 1
 408 1280 l 1
 408 1152 l 1
 408 1024 l 1
 408 896 l 1
 280 896 l 1
 280 768 l 1
 280 640 l 1
 280 512 l 1
 280 384 l 1
 152 384 l 1
 152 256 l 1
 280 256 l 1
 280 128 l 1
 280 0 l 1
 408 0 l 1
 536 0 l 1
 664 0 l 1
 792 0 l 1
1048 256 m 1
 1048 128 l 1
 1176 128 l 1
 1176 256 l 1
 1304 256 l 1
 1304 384 l 1
 1304 512 l 1
 1304 640 l 1
 1432 640 l 1
 1432 768 l 1
 1432 896 l 1
 1432 1024 l 1
 1432 1152 l 1
 1560 1152 l 1
 1560 1280 l 1
 1688 1280 l 1
 1688 1408 l 1
 1560 1408 l 1
 1432 1408 l 1
 1304 1408 l 1
 1176 1408 l 1
 1176 1280 l 1
 1304 1280 l 1
 1304 1152 l 1
 1304 1024 l 1
 1304 896 l 1
 1304 768 l 1
 1176 768 l 1
 1176 640 l 1
 1176 512 l 1
 1176 384 l 1
 1048 384 l 1
 1048 256 l 1
EndSplineSet
EndChar

StartChar: V
Encoding: 86 86 22
Width: 1304
Flags: HW
LayerCount: 2
Fore
SplineSet
276 1408 m 1
 276 1280 l 1
 276 1152 l 1
 404 1152 l 1
 404 1024 l 1
 404 896 l 1
 404 768 l 1
 404 640 l 1
 404 512 l 1
 404 384 l 1
 404 256 l 1
 532 256 l 1
 532 128 l 1
 532 0 l 1
 660 0 l 1
 788 0 l 1
 788 128 l 1
 788 256 l 1
 916 256 l 1
 916 384 l 1
 788 384 l 1
 660 384 l 1
 660 512 l 1
 660 640 l 1
 660 768 l 1
 660 896 l 1
 660 1024 l 1
 660 1152 l 1
 660 1280 l 1
 788 1280 l 1
 788 1408 l 1
 660 1408 l 1
 532 1408 l 1
 404 1408 l 1
 276 1408 l 1
916 640 m 1
 916 512 l 1
 916 384 l 1
 1044 384 l 1
 1044 512 l 1
 1044 640 l 1
 916 640 l 1
1044 896 m 1
 1044 768 l 1
 1044 640 l 1
 1172 640 l 1
 1172 768 l 1
 1172 896 l 1
 1044 896 l 1
1172 1024 m 1
 1172 896 l 1
 1300 896 l 1
 1300 1024 l 1
 1172 1024 l 1
1300 1280 m 1
 1300 1152 l 1
 1300 1024 l 1
 1428 1024 l 1
 1428 1152 l 1
 1428 1280 l 1
 1556 1280 l 1
 1556 1408 l 1
 1428 1408 l 1
 1300 1408 l 1
 1300 1280 l 1
EndSplineSet
Validated: 5
EndChar

StartChar: W
Encoding: 87 87 23
Width: 1812
Flags: HW
LayerCount: 2
Fore
SplineSet
280 1408 m 1
 280 1280 l 1
 408 1280 l 1
 408 1152 l 1
 408 1024 l 1
 408 896 l 1
 408 768 l 1
 408 640 l 1
 408 512 l 1
 408 384 l 1
 408 256 l 1
 408 128 l 1
 408 0 l 1
 536 0 l 1
 536 128 l 1
 664 128 l 1
 664 256 l 1
 664 384 l 1
 536 384 l 1
 536 512 l 1
 536 640 l 1
 536 768 l 1
 664 768 l 1
 664 896 l 1
 664 1024 l 1
 664 1152 l 1
 664 1280 l 1
 792 1280 l 1
 792 1408 l 1
 664 1408 l 1
 536 1408 l 1
 408 1408 l 1
 280 1408 l 1
664 640 m 1
 664 512 l 1
 664 384 l 1
 792 384 l 1
 792 512 l 1
 792 640 l 1
 664 640 l 1
792 896 m 1
 792 768 l 1
 792 640 l 1
 920 640 l 1
 920 768 l 1
 1048 768 l 1
 1048 640 l 1
 1048 512 l 1
 1048 384 l 1
 1048 256 l 1
 1048 128 l 1
 1048 0 l 1
 1176 0 l 1
 1304 0 l 1
 1304 128 l 1
 1304 256 l 1
 1432 256 l 1
 1432 384 l 1
 1304 384 l 1
 1304 512 l 1
 1304 640 l 1
 1304 768 l 1
 1304 896 l 1
 1304 1024 l 1
 1304 1152 l 1
 1304 1280 l 1
 1304 1408 l 1
 1176 1408 l 1
 1176 1280 l 1
 1048 1280 l 1
 1048 1152 l 1
 1048 1024 l 1
 1176 1024 l 1
 1176 896 l 1
 1048 896 l 1
 1048 1024 l 1
 920 1024 l 1
 920 896 l 1
 792 896 l 1
1432 640 m 1
 1432 512 l 1
 1432 384 l 1
 1560 384 l 1
 1560 512 l 1
 1560 640 l 1
 1432 640 l 1
1560 896 m 1
 1560 768 l 1
 1560 640 l 1
 1688 640 l 1
 1688 768 l 1
 1688 896 l 1
 1560 896 l 1
1688 1408 m 1
 1688 1280 l 1
 1816 1280 l 1
 1816 1152 l 1
 1944 1152 l 1
 1944 1280 l 1
 2072 1280 l 1
 2072 1408 l 1
 1944 1408 l 1
 1816 1408 l 1
 1688 1408 l 1
1688 1024 m 1
 1688 896 l 1
 1816 896 l 1
 1816 1024 l 1
 1816 1152 l 1
 1688 1152 l 1
 1688 1024 l 1
EndSplineSet
Validated: 5
EndChar

StartChar: X
Encoding: 88 88 24
Width: 1212
Flags: HW
LayerCount: 2
Fore
SplineSet
48 128 m 1
 48 0 l 1
 176 0 l 1
 304 0 l 1
 304 128 l 1
 304 256 l 1
 176 256 l 1
 176 128 l 1
 48 128 l 1
304 1408 m 1
 304 1280 l 1
 432 1280 l 1
 432 1152 l 1
 432 1024 l 1
 560 1024 l 1
 560 896 l 1
 560 768 l 1
 688 768 l 1
 688 640 l 1
 560 640 l 1
 560 512 l 1
 688 512 l 1
 688 384 l 1
 816 384 l 1
 816 256 l 1
 816 128 l 1
 688 128 l 1
 688 0 l 1
 816 0 l 1
 944 0 l 1
 1072 0 l 1
 1200 0 l 1
 1200 128 l 1
 1072 128 l 1
 1072 256 l 1
 1072 384 l 1
 1072 512 l 1
 944 512 l 1
 944 640 l 1
 944 768 l 1
 944 896 l 1
 816 896 l 1
 816 1024 l 1
 816 1152 l 1
 688 1152 l 1
 688 1280 l 1
 816 1280 l 1
 816 1408 l 1
 688 1408 l 1
 560 1408 l 1
 432 1408 l 1
 304 1408 l 1
304 384 m 1
 304 256 l 1
 432 256 l 1
 432 384 l 1
 304 384 l 1
432 512 m 1
 432 384 l 1
 560 384 l 1
 560 512 l 1
 432 512 l 1
944 1024 m 1
 944 896 l 1
 1072 896 l 1
 1072 1024 l 1
 944 1024 l 1
1072 1408 m 1
 1072 1280 l 1
 1200 1280 l 1
 1200 1152 l 1
 1328 1152 l 1
 1328 1280 l 1
 1456 1280 l 1
 1456 1408 l 1
 1328 1408 l 1
 1200 1408 l 1
 1072 1408 l 1
1072 1024 m 1
 1200 1024 l 1
 1200 1152 l 1
 1072 1152 l 1
 1072 1024 l 1
EndSplineSet
Validated: 5
EndChar

StartChar: Y
Encoding: 89 89 25
Width: 1312
Flags: HW
LayerCount: 2
Fore
SplineSet
284 1408 m 1
 284 1280 l 1
 412 1280 l 1
 412 1152 l 1
 412 1024 l 1
 412 896 l 1
 540 896 l 1
 540 768 l 1
 540 640 l 1
 540 512 l 1
 540 384 l 1
 412 384 l 1
 412 256 l 1
 412 128 l 1
 284 128 l 1
 284 0 l 1
 412 0 l 1
 540 0 l 1
 668 0 l 1
 796 0 l 1
 796 128 l 1
 796 256 l 1
 796 384 l 1
 796 512 l 1
 796 640 l 1
 924 640 l 1
 924 768 l 1
 1052 768 l 1
 1052 896 l 1
 1180 896 l 1
 1180 1024 l 1
 1180 1152 l 1
 1052 1152 l 1
 1052 1024 l 1
 924 1024 l 1
 924 896 l 1
 796 896 l 1
 796 1024 l 1
 668 1024 l 1
 668 1152 l 1
 668 1280 l 1
 796 1280 l 1
 796 1408 l 1
 668 1408 l 1
 540 1408 l 1
 412 1408 l 1
 284 1408 l 1
1052 1280 m 1
 1180 1280 l 1
 1180 1152 l 1
 1308 1152 l 1
 1308 1280 l 1
 1436 1280 l 1
 1564 1280 l 1
 1564 1408 l 1
 1436 1408 l 1
 1308 1408 l 1
 1180 1408 l 1
 1052 1408 l 1
 1052 1280 l 1
EndSplineSet
Validated: 5
EndChar

StartChar: Z
Encoding: 90 90 26
Width: 1192
Flags: HW
LayerCount: 2
Fore
SplineSet
32 0 m 1
 32 128 l 1
 160 128 l 1
 160 256 l 1
 288 256 l 1
 288 384 l 1
 288 512 l 1
 416 512 l 1
 416 640 l 1
 544 640 l 1
 544 768 l 1
 672 768 l 1
 672 896 l 1
 800 896 l 1
 800 1024 l 1
 928 1024 l 1
 928 1152 l 1
 1056 1152 l 1
 1056 1280 l 1
 928 1280 l 1
 800 1280 l 1
 672 1280 l 1
 544 1280 l 1
 544 1152 l 1
 416 1152 l 1
 416 1280 l 1
 416 1408 l 1
 544 1408 l 1
 672 1408 l 1
 800 1408 l 1
 928 1408 l 1
 1056 1408 l 1
 1184 1408 l 1
 1312 1408 l 1
 1440 1408 l 1
 1440 1280 l 1
 1312 1280 l 1
 1312 1152 l 1
 1184 1152 l 1
 1184 1024 l 1
 1056 1024 l 1
 1056 896 l 1
 1056 768 l 1
 928 768 l 1
 928 640 l 1
 800 640 l 1
 800 512 l 1
 672 512 l 1
 672 384 l 1
 544 384 l 1
 544 256 l 1
 416 256 l 1
 416 128 l 1
 544 128 l 1
 672 128 l 1
 800 128 l 1
 928 128 l 1
 1056 128 l 1
 1056 256 l 1
 1184 256 l 1
 1184 128 l 1
 1184 0 l 1
 1056 0 l 1
 928 0 l 1
 800 0 l 1
 672 0 l 1
 544 0 l 1
 416 0 l 1
 288 0 l 1
 160 0 l 1
 32 0 l 1
EndSplineSet
Validated: 1
EndChar

StartChar: asciitilde
Encoding: 126 126 27
Width: 1024
Flags: HW
LayerCount: 2
Fore
SplineSet
128 640 m 1
 128 512 l 1
 256 512 l 1
 256 640 l 1
 128 640 l 1
256 768 m 1
 256 640 l 1
 384 640 l 1
 384 768 l 1
 256 768 l 1
384 896 m 1
 384 768 l 1
 512 768 l 1
 512 640 l 1
 640 640 l 1
 640 512 l 1
 768 512 l 1
 896 512 l 1
 1024 512 l 1
 1024 640 l 1
 896 640 l 1
 768 640 l 1
 768 768 l 1
 640 768 l 1
 640 896 l 1
 512 896 l 1
 384 896 l 1
1024 640 m 1
 1152 640 l 1
 1152 768 l 1
 1024 768 l 1
 1024 640 l 1
EndSplineSet
Validated: 5
EndChar

StartChar: a
Encoding: 97 97 28
Width: 1431
Flags: HW
LayerCount: 2
Fore
SplineSet
30 128 m 1
 30 0 l 1
 158 0 l 1
 286 0 l 1
 414 0 l 1
 414 128 l 1
 414 256 l 1
 414 384 l 1
 286 384 l 1
 286 256 l 1
 286 128 l 1
 158 128 l 1
 30 128 l 1
414 640 m 1
 414 512 l 1
 414 384 l 1
 542 384 l 1
 670 384 l 1
 798 384 l 1
 926 384 l 1
 1054 384 l 1
 1054 256 l 1
 1182 256 l 1
 1182 128 l 1
 1054 128 l 1
 926 128 l 1
 926 0 l 1
 1054 0 l 1
 1182 0 l 1
 1310 0 l 1
 1438 0 l 1
 1438 128 l 1
 1438 256 l 1
 1310 256 l 1
 1310 384 l 1
 1310 512 l 1
 1310 640 l 1
 1310 768 l 1
 1310 896 l 1
 1310 1024 l 1
 1182 1024 l 1
 1182 1152 l 1
 1182 1280 l 1
 1182 1408 l 1
 1054 1408 l 1
 926 1408 l 1
 926 1280 l 1
 926 1152 l 1
 798 1152 l 1
 798 1024 l 1
 926 1024 l 1
 1054 1024 l 1
 1054 896 l 1
 1054 768 l 1
 1054 640 l 1
 1054 512 l 1
 926 512 l 1
 798 512 l 1
 670 512 l 1
 542 512 l 1
 542 640 l 1
 414 640 l 1
542 768 m 1
 542 640 l 1
 670 640 l 1
 670 768 l 1
 542 768 l 1
670 896 m 1
 670 768 l 1
 798 768 l 1
 798 896 l 1
 798 1024 l 1
 670 1024 l 1
 670 896 l 1
EndSplineSet
EndChar

StartChar: b
Encoding: 98 98 29
Width: 1195
Flags: HW
LayerCount: 2
Fore
SplineSet
36 0 m 1
 164 0 l 1
 292 0 l 1
 420 0 l 1
 548 0 l 1
 676 0 l 1
 804 0 l 1
 932 0 l 1
 932 128 l 1
 1060 128 l 1
 1060 256 l 1
 1188 256 l 1
 1188 384 l 1
 1188 512 l 1
 1188 640 l 1
 1060 640 l 1
 932 640 l 1
 932 512 l 1
 932 384 l 1
 932 256 l 1
 804 256 l 1
 804 128 l 1
 676 128 l 1
 548 128 l 1
 420 128 l 1
 420 256 l 1
 420 384 l 1
 548 384 l 1
 548 512 l 1
 548 640 l 1
 676 640 l 1
 804 640 l 1
 932 640 l 1
 932 768 l 1
 1060 768 l 1
 1060 896 l 1
 932 896 l 1
 804 896 l 1
 804 768 l 1
 676 768 l 1
 548 768 l 1
 548 896 l 1
 676 896 l 1
 676 1024 l 1
 676 1152 l 1
 676 1280 l 1
 804 1280 l 1
 932 1280 l 1
 1060 1280 l 1
 1060 1152 l 1
 1060 1024 l 1
 1060 896 l 1
 1188 896 l 1
 1188 1024 l 1
 1316 1024 l 1
 1316 1152 l 1
 1316 1280 l 1
 1316 1408 l 1
 1188 1408 l 1
 1060 1408 l 1
 932 1408 l 1
 804 1408 l 1
 676 1408 l 1
 548 1408 l 1
 420 1408 l 1
 292 1408 l 1
 292 1280 l 1
 420 1280 l 1
 420 1152 l 1
 420 1024 l 1
 420 896 l 1
 292 896 l 1
 292 768 l 1
 292 640 l 1
 292 512 l 1
 292 384 l 1
 164 384 l 1
 164 256 l 1
 164 128 l 1
 36 128 l 1
 36 0 l 1
EndSplineSet
EndChar

StartChar: c
Encoding: 99 99 30
Width: 1315
Flags: HW
LayerCount: 2
Fore
SplineSet
928 1408 m 1
 1440 1408 l 1
 1568 1408 l 1
 1568 1280 l 1
 1568 1152 l 1
 1440 1152 l 1
 1440 1280 l 1
 1312 1280 l 1
 1184 1280 l 1
 1056 1280 l 1
 928 1280 l 1
 800 1280 l 1
 800 1152 l 1
 672 1152 l 1
 672 1024 l 1
 544 1024 l 1
 544 896 l 1
 544 768 l 1
 544 640 l 1
 416 640 l 1
 416 512 l 1
 416 384 l 1
 544 384 l 1
 544 256 l 1
 544 128 l 1
 672 128 l 1
 800 128 l 1
 928 128 l 1
 1056 128 l 1
 1184 128 l 1
 1184 256 l 1
 1312 256 l 1
 1312 128 l 1
 1312 0 l 1
 1184 0 l 1
 1056 0 l 1
 928 0 l 1
 800 0 l 1
 672 0 l 1
 544 0 l 1
 416 0 l 1
 288 0 l 1
 288 128 l 1
 160 128 l 1
 160 256 l 1
 160 384 l 1
 160 512 l 1
 160 640 l 1
 160 768 l 1
 160 896 l 1
 288 896 l 1
 288 1024 l 1
 416 1024 l 1
 416 1152 l 1
 416 1280 l 1
 544 1280 l 1
 672 1280 l 1
 672 1408 l 1
 800 1408 l 1
 928 1408 l 1
EndSplineSet
EndChar

StartChar: d
Encoding: 100 100 31
Width: 1568
Flags: HW
LayerCount: 2
Fore
SplineSet
30 128 m 1
 158 128 l 1
 158 256 l 1
 158 384 l 1
 286 384 l 1
 286 512 l 1
 286 640 l 1
 286 768 l 1
 286 896 l 1
 414 896 l 1
 414 1024 l 1
 414 1152 l 1
 414 1280 l 1
 286 1280 l 1
 286 1408 l 1
 414 1408 l 1
 542 1408 l 1
 670 1408 l 1
 798 1408 l 1
 926 1408 l 1
 1054 1408 l 1
 1182 1408 l 1
 1310 1408 l 1
 1438 1408 l 1
 1438 1280 l 1
 1566 1280 l 1
 1566 1152 l 1
 1694 1152 l 1
 1694 1024 l 1
 1694 896 l 1
 1694 768 l 1
 1566 768 l 1
 1566 640 l 1
 1566 512 l 1
 1566 384 l 1
 1438 384 l 1
 1438 256 l 1
 1310 256 l 1
 1310 128 l 1
 1182 128 l 1
 1054 128 l 1
 1054 0 l 1
 926 0 l 1
 798 0 l 1
 670 0 l 1
 542 0 l 1
 414 0 l 1
 286 0 l 1
 158 0 l 1
 30 0 l 1
 30 128 l 1
670 640 m 1
 542 640 l 1
 542 512 l 1
 542 384 l 1
 542 256 l 1
 542 128 l 1
 670 128 l 1
 798 128 l 1
 926 128 l 1
 926 256 l 1
 1054 256 l 1
 1054 384 l 1
 1182 384 l 1
 1182 512 l 1
 1310 512 l 1
 1310 640 l 1
 1310 768 l 1
 1310 896 l 1
 1310 1024 l 1
 1310 1152 l 1
 1310 1280 l 1
 1182 1280 l 1
 1054 1280 l 1
 926 1280 l 1
 798 1280 l 1
 798 1152 l 1
 670 1152 l 1
 670 1024 l 1
 670 896 l 1
 670 768 l 1
 670 640 l 1
EndSplineSet
EndChar

StartChar: e
Encoding: 101 101 32
Width: 1051
Flags: HW
LayerCount: 2
Fore
SplineSet
30 0 m 1
 30 128 l 1
 158 128 l 1
 158 256 l 1
 158 384 l 1
 286 384 l 1
 286 512 l 1
 286 640 l 1
 286 768 l 1
 286 896 l 1
 414 896 l 1
 414 1024 l 1
 414 1152 l 1
 414 1280 l 1
 286 1280 l 1
 286 1408 l 1
 414 1408 l 1
 542 1408 l 1
 670 1408 l 1
 798 1408 l 1
 926 1408 l 1
 1054 1408 l 1
 1182 1408 l 1
 1310 1408 l 1
 1310 1280 l 1
 1310 1152 l 1
 1182 1152 l 1
 1182 1280 l 1
 1054 1280 l 1
 926 1280 l 1
 798 1280 l 1
 670 1280 l 1
 670 1152 l 1
 670 1024 l 1
 670 896 l 1
 542 896 l 1
 542 768 l 1
 670 768 l 1
 798 768 l 1
 926 768 l 1
 926 896 l 1
 1054 896 l 1
 1054 768 l 1
 1054 640 l 1
 926 640 l 1
 798 640 l 1
 670 640 l 1
 542 640 l 1
 542 512 l 1
 542 384 l 1
 414 384 l 1
 414 256 l 1
 414 128 l 1
 542 128 l 1
 670 128 l 1
 798 128 l 1
 926 128 l 1
 926 256 l 1
 1054 256 l 1
 1054 128 l 1
 1054 0 l 1
 926 0 l 1
 798 0 l 1
 670 0 l 1
 542 0 l 1
 414 0 l 1
 286 0 l 1
 158 0 l 1
 30 0 l 1
EndSplineSet
EndChar

StartChar: f
Encoding: 102 102 33
Width: 1051
Flags: HW
LayerCount: 2
Fore
SplineSet
30 0 m 1
 30 128 l 1
 158 128 l 1
 158 256 l 1
 158 384 l 1
 286 384 l 1
 286 512 l 1
 286 640 l 1
 286 768 l 1
 286 896 l 1
 414 896 l 1
 414 1024 l 1
 414 1152 l 1
 414 1280 l 1
 286 1280 l 1
 286 1408 l 1
 414 1408 l 1
 542 1408 l 1
 670 1408 l 1
 798 1408 l 1
 926 1408 l 1
 1054 1408 l 1
 1182 1408 l 1
 1310 1408 l 1
 1310 1280 l 1
 1310 1152 l 1
 1182 1152 l 1
 1182 1280 l 1
 1054 1280 l 1
 926 1280 l 1
 798 1280 l 1
 670 1280 l 1
 670 1152 l 1
 670 1024 l 1
 670 896 l 1
 542 896 l 1
 542 768 l 1
 670 768 l 1
 798 768 l 1
 926 768 l 1
 926 896 l 1
 1054 896 l 1
 1054 768 l 1
 1054 640 l 1
 1054 512 l 1
 926 512 l 1
 926 640 l 1
 798 640 l 1
 670 640 l 1
 542 640 l 1
 542 512 l 1
 542 384 l 1
 414 384 l 1
 414 256 l 1
 414 128 l 1
 542 128 l 1
 542 0 l 1
 414 0 l 1
 286 0 l 1
 158 0 l 1
 30 0 l 1
EndSplineSet
EndChar

StartChar: g
Encoding: 103 103 34
Width: 1442
Flags: HW
LayerCount: 2
Fore
SplineSet
928 1408 m 1
 1440 1408 l 1
 1568 1408 l 1
 1568 1280 l 1
 1568 1152 l 1
 1440 1152 l 1
 1440 1280 l 1
 1312 1280 l 1
 1056 1280 l 1
 928 1280 l 1
 800 1280 l 1
 800 1152 l 1
 672 1152 l 1
 672 1024 l 1
 544 1024 l 1
 544 896 l 1
 544 768 l 1
 544 640 l 1
 416 640 l 1
 416 512 l 1
 416 384 l 1
 544 384 l 1
 544 256 l 1
 544 128 l 1
 672 128 l 1
 800 128 l 1
 928 128 l 1
 1056 128 l 1
 1056 256 l 1
 1056 384 l 1
 1056 512 l 1
 928 512 l 1
 928 640 l 1
 1056 640 l 1
 1184 640 l 1
 1312 640 l 1
 1440 640 l 1
 1568 640 l 1
 1568 512 l 1
 1440 512 l 1
 1312 512 l 1
 1312 384 l 1
 1312 256 l 1
 1312 128 l 1
 1312 0 l 1
 1184 0 l 1
 1056 0 l 1
 928 0 l 1
 800 0 l 1
 672 0 l 1
 544 0 l 1
 416 0 l 1
 288 0 l 1
 288 128 l 1
 288 256 l 1
 160 256 l 1
 160 384 l 1
 160 512 l 1
 160 640 l 1
 160 768 l 1
 160 896 l 1
 288 896 l 1
 288 1024 l 1
 416 1024 l 1
 416 1152 l 1
 416 1280 l 1
 544 1280 l 1
 672 1280 l 1
 672 1408 l 1
 800 1408 l 1
 928 1408 l 1
EndSplineSet
EndChar

StartChar: h
Encoding: 104 104 35
Width: 1576
Flags: HW
LayerCount: 2
Fore
SplineSet
30 0 m 1
 30 128 l 1
 158 128 l 1
 158 256 l 1
 158 384 l 1
 286 384 l 1
 286 512 l 1
 286 640 l 1
 286 768 l 1
 286 896 l 1
 414 896 l 1
 414 1024 l 1
 414 1152 l 1
 414 1280 l 1
 286 1280 l 1
 286 1408 l 1
 414 1408 l 1
 542 1408 l 1
 670 1408 l 1
 798 1408 l 1
 926 1408 l 1
 926 1280 l 1
 798 1280 l 1
 670 1280 l 1
 670 1152 l 1
 670 1024 l 1
 670 896 l 1
 542 896 l 1
 542 768 l 1
 670 768 l 1
 798 768 l 1
 926 768 l 1
 1054 768 l 1
 1182 768 l 1
 1182 896 l 1
 1310 896 l 1
 1310 1024 l 1
 1310 1152 l 1
 1310 1280 l 1
 1182 1280 l 1
 1182 1408 l 1
 1310 1408 l 1
 1438 1408 l 1
 1566 1408 l 1
 1694 1408 l 1
 1822 1408 l 1
 1822 1280 l 1
 1694 1280 l 1
 1566 1280 l 1
 1566 1152 l 1
 1566 1024 l 1
 1566 896 l 1
 1566 768 l 1
 1438 768 l 1
 1438 640 l 1
 1438 512 l 1
 1438 384 l 1
 1438 256 l 1
 1310 256 l 1
 1310 128 l 1
 1438 128 l 1
 1438 0 l 1
 1310 0 l 1
 1182 0 l 1
 1054 0 l 1
 926 0 l 1
 926 128 l 1
 1054 128 l 1
 1054 256 l 1
 1054 384 l 1
 1182 384 l 1
 1182 512 l 1
 1182 640 l 1
 1054 640 l 1
 926 640 l 1
 798 640 l 1
 670 640 l 1
 542 640 l 1
 542 512 l 1
 542 384 l 1
 414 384 l 1
 414 256 l 1
 414 128 l 1
 542 128 l 1
 542 0 l 1
 414 0 l 1
 286 0 l 1
 158 0 l 1
 30 0 l 1
EndSplineSet
EndChar

StartChar: i
Encoding: 105 105 36
Width: 689
Flags: HW
LayerCount: 2
Fore
SplineSet
48 0 m 1
 48 128 l 1
 176 128 l 1
 176 256 l 1
 176 384 l 1
 304 384 l 1
 304 512 l 1
 304 640 l 1
 304 768 l 1
 304 896 l 1
 432 896 l 1
 432 1024 l 1
 432 1152 l 1
 432 1280 l 1
 304 1280 l 1
 304 1408 l 1
 432 1408 l 1
 560 1408 l 1
 688 1408 l 1
 816 1408 l 1
 944 1408 l 1
 944 1280 l 1
 816 1280 l 1
 688 1280 l 1
 688 1152 l 1
 688 1024 l 1
 688 896 l 1
 688 768 l 1
 560 768 l 1
 560 640 l 1
 560 512 l 1
 560 384 l 1
 560 256 l 1
 432 256 l 1
 432 128 l 1
 560 128 l 1
 560 0 l 1
 432 0 l 1
 304 0 l 1
 176 0 l 1
 48 0 l 1
EndSplineSet
EndChar

StartChar: j
Encoding: 106 106 37
Width: 1072
Flags: HW
LayerCount: 2
Fore
SplineSet
52 -128 m 1
 52 0 l 1
 180 0 l 1
 180 -128 l 1
 308 -128 l 1
 436 -128 l 1
 436 0 l 1
 564 0 l 1
 564 128 l 1
 564 256 l 1
 564 384 l 1
 564 512 l 1
 692 512 l 1
 692 640 l 1
 692 768 l 1
 692 896 l 1
 692 1024 l 1
 820 1024 l 1
 820 1152 l 1
 820 1280 l 1
 692 1280 l 1
 692 1408 l 1
 820 1408 l 1
 948 1408 l 1
 1076 1408 l 1
 1204 1408 l 1
 1332 1408 l 1
 1332 1280 l 1
 1204 1280 l 1
 1076 1280 l 1
 1076 1152 l 1
 1076 1024 l 1
 1076 896 l 1
 948 896 l 1
 948 768 l 1
 948 640 l 1
 948 512 l 1
 948 384 l 1
 820 384 l 1
 820 256 l 1
 820 128 l 1
 820 0 l 1
 692 0 l 1
 692 -128 l 1
 692 -256 l 1
 564 -256 l 1
 436 -256 l 1
 308 -256 l 1
 180 -256 l 1
 52 -256 l 1
 52 -128 l 1
EndSplineSet
EndChar

StartChar: k
Encoding: 107 107 38
Width: 1318
Flags: HW
LayerCount: 2
Fore
SplineSet
36 128 m 1
 36 0 l 1
 164 0 l 1
 292 0 l 1
 420 0 l 1
 548 0 l 1
 548 128 l 1
 420 128 l 1
 420 256 l 1
 420 384 l 1
 548 384 l 1
 548 512 l 1
 548 640 l 1
 676 640 l 1
 676 512 l 1
 804 512 l 1
 804 384 l 1
 804 256 l 1
 932 256 l 1
 932 128 l 1
 804 128 l 1
 804 0 l 1
 932 0 l 1
 1060 0 l 1
 1188 0 l 1
 1316 0 l 1
 1316 128 l 1
 1188 128 l 1
 1188 256 l 1
 1060 256 l 1
 1060 384 l 1
 1060 512 l 1
 932 512 l 1
 932 640 l 1
 932 768 l 1
 932 896 l 1
 804 896 l 1
 676 896 l 1
 676 768 l 1
 548 768 l 1
 548 896 l 1
 676 896 l 1
 676 1024 l 1
 676 1152 l 1
 676 1280 l 1
 804 1280 l 1
 804 1408 l 1
 676 1408 l 1
 548 1408 l 1
 420 1408 l 1
 292 1408 l 1
 292 1280 l 1
 420 1280 l 1
 420 1152 l 1
 420 1024 l 1
 420 896 l 1
 292 896 l 1
 292 768 l 1
 292 640 l 1
 292 512 l 1
 292 384 l 1
 164 384 l 1
 164 256 l 1
 164 128 l 1
 36 128 l 1
932 1024 m 1
 932 896 l 1
 1060 896 l 1
 1060 1024 l 1
 932 1024 l 1
1060 1408 m 1
 1060 1280 l 1
 1188 1280 l 1
 1188 1152 l 1
 1316 1152 l 1
 1316 1280 l 1
 1444 1280 l 1
 1444 1408 l 1
 1316 1408 l 1
 1188 1408 l 1
 1060 1408 l 1
1060 1024 m 1
 1188 1024 l 1
 1188 1152 l 1
 1060 1152 l 1
 1060 1024 l 1
EndSplineSet
EndChar

StartChar: l
Encoding: 108 108 39
Width: 1160
Flags: HW
LayerCount: 2
Fore
SplineSet
30 128 m 1
 30 0 l 1
 158 0 l 1
 286 0 l 1
 414 0 l 1
 542 0 l 1
 670 0 l 1
 798 0 l 1
 926 0 l 1
 1054 0 l 1
 1054 128 l 1
 926 128 l 1
 798 128 l 1
 670 128 l 1
 542 128 l 1
 414 128 l 1
 414 256 l 1
 542 256 l 1
 542 384 l 1
 542 512 l 1
 542 640 l 1
 542 768 l 1
 670 768 l 1
 670 896 l 1
 670 1024 l 1
 670 1152 l 1
 670 1280 l 1
 798 1280 l 1
 926 1280 l 1
 926 1408 l 1
 798 1408 l 1
 670 1408 l 1
 542 1408 l 1
 414 1408 l 1
 286 1408 l 1
 286 1280 l 1
 414 1280 l 1
 414 1152 l 1
 414 1024 l 1
 414 896 l 1
 286 896 l 1
 286 768 l 1
 286 640 l 1
 286 512 l 1
 286 384 l 1
 158 384 l 1
 158 256 l 1
 158 128 l 1
 30 128 l 1
1054 128 m 1
 1182 128 l 1
 1182 256 l 1
 1054 256 l 1
 1054 128 l 1
EndSplineSet
EndChar

StartChar: m
Encoding: 109 109 40
Width: 1708
Flags: HW
LayerCount: 2
Fore
SplineSet
36 128 m 1
 36 0 l 1
 164 0 l 1
 292 0 l 1
 420 0 l 1
 420 128 l 1
 292 128 l 1
 292 256 l 1
 420 256 l 1
 420 384 l 1
 420 512 l 1
 420 640 l 1
 420 768 l 1
 548 768 l 1
 548 896 l 1
 548 1024 l 1
 676 1024 l 1
 676 896 l 1
 676 768 l 1
 676 640 l 1
 676 512 l 1
 676 384 l 1
 804 384 l 1
 804 256 l 1
 804 128 l 1
 932 128 l 1
 932 256 l 1
 932 384 l 1
 1060 384 l 1
 1060 512 l 1
 932 512 l 1
 932 640 l 1
 932 768 l 1
 932 896 l 1
 804 896 l 1
 804 1024 l 1
 804 1152 l 1
 804 1280 l 1
 804 1408 l 1
 676 1408 l 1
 548 1408 l 1
 420 1408 l 1
 292 1408 l 1
 292 1280 l 1
 420 1280 l 1
 420 1152 l 1
 420 1024 l 1
 420 896 l 1
 292 896 l 1
 292 768 l 1
 292 640 l 1
 292 512 l 1
 292 384 l 1
 164 384 l 1
 164 256 l 1
 164 128 l 1
 36 128 l 1
1060 768 m 1
 1060 640 l 1
 1060 512 l 1
 1188 512 l 1
 1188 640 l 1
 1316 640 l 1
 1316 768 l 1
 1316 896 l 1
 1188 896 l 1
 1188 768 l 1
 1060 768 l 1
1188 128 m 1
 1188 0 l 1
 1316 0 l 1
 1444 0 l 1
 1572 0 l 1
 1700 0 l 1
 1700 128 l 1
 1572 128 l 1
 1572 256 l 1
 1572 384 l 1
 1572 512 l 1
 1700 512 l 1
 1700 640 l 1
 1700 768 l 1
 1700 896 l 1
 1700 1024 l 1
 1828 1024 l 1
 1828 1152 l 1
 1828 1280 l 1
 1956 1280 l 1
 1956 1408 l 1
 1828 1408 l 1
 1700 1408 l 1
 1572 1408 l 1
 1572 1280 l 1
 1444 1280 l 1
 1444 1152 l 1
 1444 1024 l 1
 1572 1024 l 1
 1572 896 l 1
 1444 896 l 1
 1444 768 l 1
 1444 640 l 1
 1444 512 l 1
 1444 384 l 1
 1316 384 l 1
 1316 256 l 1
 1316 128 l 1
 1188 128 l 1
1316 896 m 1
 1444 896 l 1
 1444 1024 l 1
 1316 1024 l 1
 1316 896 l 1
EndSplineSet
EndChar

StartChar: n
Encoding: 110 110 41
Width: 1444
Flags: HW
LayerCount: 2
Fore
SplineSet
28 0 m 1
 28 128 l 1
 156 128 l 1
 156 256 l 1
 156 384 l 1
 284 384 l 1
 284 512 l 1
 284 640 l 1
 284 768 l 1
 284 896 l 1
 412 896 l 1
 412 1024 l 1
 412 1152 l 1
 412 1280 l 1
 284 1280 l 1
 284 1408 l 1
 412 1408 l 1
 540 1408 l 1
 668 1408 l 1
 668 1280 l 1
 796 1280 l 1
 796 1152 l 1
 796 1024 l 1
 924 1024 l 1
 924 896 l 1
 924 768 l 1
 1052 768 l 1
 1052 640 l 1
 1052 512 l 1
 1180 512 l 1
 1180 640 l 1
 1308 640 l 1
 1308 768 l 1
 1308 896 l 1
 1308 1024 l 1
 1308 1152 l 1
 1436 1152 l 1
 1436 1280 l 1
 1308 1280 l 1
 1308 1408 l 1
 1436 1408 l 1
 1564 1408 l 1
 1692 1408 l 1
 1692 1280 l 1
 1564 1280 l 1
 1564 1152 l 1
 1564 1024 l 1
 1436 1024 l 1
 1436 896 l 1
 1436 768 l 1
 1436 640 l 1
 1436 512 l 1
 1308 512 l 1
 1308 384 l 1
 1308 256 l 1
 1308 128 l 1
 1308 0 l 1
 1180 0 l 1
 1052 0 l 1
 1052 128 l 1
 924 128 l 1
 924 256 l 1
 924 384 l 1
 924 512 l 1
 796 512 l 1
 796 640 l 1
 796 768 l 1
 668 768 l 1
 668 896 l 1
 668 1024 l 1
 540 1024 l 1
 540 896 l 1
 540 768 l 1
 412 768 l 1
 412 640 l 1
 412 512 l 1
 412 384 l 1
 412 256 l 1
 284 256 l 1
 284 128 l 1
 412 128 l 1
 412 0 l 1
 284 0 l 1
 156 0 l 1
 28 0 l 1
EndSplineSet
EndChar

StartChar: o
Encoding: 111 111 42
Width: 1560
Flags: HW
LayerCount: 2
Fore
SplineSet
664 128 m 1
 536 128 l 1
 536 256 l 1
 408 256 l 1
 408 384 l 1
 408 512 l 1
 408 640 l 1
 408 768 l 1
 536 768 l 1
 536 896 l 1
 536 1024 l 1
 664 1024 l 1
 664 1152 l 1
 792 1152 l 1
 792 1280 l 1
 920 1280 l 1
 1048 1280 l 1
 1176 1280 l 1
 1304 1280 l 1
 1304 1152 l 1
 1304 1024 l 1
 1432 1024 l 1
 1432 896 l 1
 1304 896 l 1
 1304 768 l 1
 1304 640 l 1
 1304 512 l 1
 1176 512 l 1
 1176 384 l 1
 1176 256 l 1
 1048 256 l 1
 1048 128 l 1
 1176 128 l 1
 1304 128 l 1
 1304 256 l 1
 1432 256 l 1
 1432 384 l 1
 1432 512 l 1
 1560 512 l 1
 1560 640 l 1
 1560 768 l 1
 1688 768 l 1
 1688 896 l 1
 1688 1024 l 1
 1688 1152 l 1
 1560 1152 l 1
 1560 1280 l 1
 1432 1280 l 1
 1432 1408 l 1
 1304 1408 l 1
 1176 1408 l 1
 1048 1408 l 1
 920 1408 l 1
 792 1408 l 1
 664 1408 l 1
 664 1280 l 1
 536 1280 l 1
 536 1152 l 1
 408 1152 l 1
 408 1024 l 1
 280 1024 l 1
 280 896 l 1
 280 768 l 1
 152 768 l 1
 152 640 l 1
 152 512 l 1
 152 384 l 1
 152 256 l 1
 152 128 l 1
 280 128 l 1
 280 0 l 1
 408 0 l 1
 536 0 l 1
 664 0 l 1
 792 0 l 1
 920 0 l 1
 1048 0 l 1
 1048 128 l 1
 920 128 l 1
 792 128 l 1
 664 128 l 1
EndSplineSet
EndChar

StartChar: p
Encoding: 112 112 43
Width: 1196
Flags: HW
LayerCount: 2
Fore
SplineSet
48 128 m 1
 176 128 l 1
 176 256 l 1
 176 384 l 1
 304 384 l 1
 304 512 l 1
 304 640 l 1
 304 768 l 1
 304 896 l 1
 432 896 l 1
 432 1024 l 1
 432 1152 l 1
 432 1280 l 1
 304 1280 l 1
 304 1408 l 1
 432 1408 l 1
 560 1408 l 1
 688 1408 l 1
 816 1408 l 1
 944 1408 l 1
 1072 1408 l 1
 1200 1408 l 1
 1328 1408 l 1
 1328 1280 l 1
 1456 1280 l 1
 1456 1152 l 1
 1456 1024 l 1
 1328 1024 l 1
 1328 896 l 1
 1328 768 l 1
 1200 768 l 1
 1072 768 l 1
 1072 640 l 1
 944 640 l 1
 816 640 l 1
 688 640 l 1
 560 640 l 1
 560 512 l 1
 560 384 l 1
 560 256 l 1
 432 256 l 1
 432 128 l 1
 560 128 l 1
 560 0 l 1
 432 0 l 1
 304 0 l 1
 176 0 l 1
 48 0 l 1
 48 128 l 1
816 1280 m 1
 688 1280 l 1
 688 1152 l 1
 688 1024 l 1
 688 896 l 1
 688 768 l 1
 816 768 l 1
 944 768 l 1
 944 896 l 1
 1072 896 l 1
 1072 1024 l 1
 1072 1152 l 1
 1072 1280 l 1
 944 1280 l 1
 816 1280 l 1
EndSplineSet
EndChar

StartChar: q
Encoding: 113 113 44
Width: 1560
Flags: HW
LayerCount: 2
Fore
SplineSet
1180 1280 m 1
 1308 1280 l 1
 1308 1152 l 1
 1308 1024 l 1
 1436 1024 l 1
 1436 896 l 1
 1308 896 l 1
 1308 768 l 1
 1308 640 l 1
 1308 512 l 1
 1180 512 l 1
 1180 384 l 1
 1180 256 l 1
 1052 256 l 1
 1052 128 l 1
 1180 128 l 1
 1308 128 l 1
 1308 256 l 1
 1436 256 l 1
 1436 384 l 1
 1564 384 l 1
 1564 512 l 1
 1564 640 l 1
 1692 640 l 1
 1692 768 l 1
 1692 896 l 1
 1692 1024 l 1
 1692 1152 l 1
 1692 1280 l 1
 1564 1280 l 1
 1564 1408 l 1
 1436 1408 l 1
 1308 1408 l 1
 1180 1408 l 1
 1052 1408 l 1
 924 1408 l 1
 796 1408 l 1
 668 1408 l 1
 668 1280 l 1
 540 1280 l 1
 540 1152 l 1
 412 1152 l 1
 412 1024 l 1
 284 1024 l 1
 284 896 l 1
 284 768 l 1
 156 768 l 1
 156 640 l 1
 156 512 l 1
 156 384 l 1
 156 256 l 1
 284 256 l 1
 284 128 l 1
 284 0 l 1
 412 0 l 1
 540 0 l 1
 668 0 l 1
 796 0 l 1
 796 -128 l 1
 924 -128 l 1
 924 -256 l 1
 1052 -256 l 1
 1180 -256 l 1
 1180 -384 l 1
 1308 -384 l 1
 1436 -384 l 1
 1564 -384 l 1
 1692 -384 l 1
 1692 -256 l 1
 1564 -256 l 1
 1436 -256 l 1
 1308 -256 l 1
 1308 -128 l 1
 1180 -128 l 1
 1052 -128 l 1
 1052 0 l 1
 1052 128 l 1
 924 128 l 1
 796 128 l 1
 668 128 l 1
 540 128 l 1
 540 256 l 1
 412 256 l 1
 412 384 l 1
 412 512 l 1
 412 640 l 1
 540 640 l 1
 540 768 l 1
 540 896 l 1
 540 1024 l 1
 668 1024 l 1
 668 1152 l 1
 796 1152 l 1
 796 1280 l 1
 924 1280 l 1
 1052 1280 l 1
 1180 1280 l 1
EndSplineSet
EndChar

StartChar: r
Encoding: 114 114 45
Width: 1312
Flags: HW
LayerCount: 2
Fore
SplineSet
30 128 m 1
 158 128 l 1
 158 256 l 1
 158 384 l 1
 286 384 l 1
 286 512 l 1
 286 640 l 1
 286 768 l 1
 286 896 l 1
 414 896 l 1
 414 1024 l 1
 414 1152 l 1
 414 1280 l 1
 286 1280 l 1
 286 1408 l 1
 414 1408 l 1
 542 1408 l 1
 670 1408 l 1
 798 1408 l 1
 926 1408 l 1
 1054 1408 l 1
 1182 1408 l 1
 1310 1408 l 1
 1310 1280 l 1
 1310 1152 l 1
 1310 1024 l 1
 1310 896 l 1
 1182 896 l 1
 1182 768 l 1
 1054 768 l 1
 1054 640 l 1
 926 640 l 1
 926 512 l 1
 1054 512 l 1
 1054 384 l 1
 1054 256 l 1
 1182 256 l 1
 1182 128 l 1
 1310 128 l 1
 1310 0 l 1
 1182 0 l 1
 1054 0 l 1
 926 0 l 1
 926 128 l 1
 798 128 l 1
 798 256 l 1
 798 384 l 1
 798 512 l 1
 670 512 l 1
 670 640 l 1
 542 640 l 1
 542 512 l 1
 542 384 l 1
 414 384 l 1
 414 256 l 1
 414 128 l 1
 542 128 l 1
 542 0 l 1
 414 0 l 1
 286 0 l 1
 158 0 l 1
 30 0 l 1
 30 128 l 1
670 896 m 1
 542 896 l 1
 542 768 l 1
 670 768 l 1
 798 768 l 1
 926 768 l 1
 926 896 l 1
 1054 896 l 1
 1054 1024 l 1
 1054 1152 l 1
 1054 1280 l 1
 926 1280 l 1
 798 1280 l 1
 670 1280 l 1
 670 1152 l 1
 670 1024 l 1
 670 896 l 1
EndSplineSet
EndChar

StartChar: s
Encoding: 115 115 46
Width: 1076
Flags: HW
LayerCount: 2
Fore
SplineSet
692 1408 m 1
 1076 1408 l 1
 1204 1408 l 1
 1332 1408 l 1
 1332 1280 l 1
 1204 1280 l 1
 1204 1152 l 1
 1076 1152 l 1
 1076 1280 l 1
 948 1280 l 1
 820 1280 l 1
 692 1280 l 1
 564 1280 l 1
 564 1152 l 1
 564 1024 l 1
 692 1024 l 1
 692 896 l 1
 820 896 l 1
 820 768 l 1
 948 768 l 1
 948 640 l 1
 1076 640 l 1
 1076 512 l 1
 1076 384 l 1
 1076 256 l 1
 1076 128 l 1
 948 128 l 1
 820 128 l 1
 820 0 l 1
 692 0 l 1
 564 0 l 1
 436 0 l 1
 308 0 l 1
 180 0 l 1
 52 0 l 1
 52 128 l 1
 52 256 l 1
 180 256 l 1
 308 256 l 1
 308 128 l 1
 436 128 l 1
 564 128 l 1
 692 128 l 1
 692 256 l 1
 820 256 l 1
 820 384 l 1
 692 384 l 1
 692 512 l 1
 692 640 l 1
 564 640 l 1
 564 768 l 1
 436 768 l 1
 436 896 l 1
 308 896 l 1
 308 1024 l 1
 308 1152 l 1
 308 1280 l 1
 436 1280 l 1
 436 1408 l 1
 564 1408 l 1
 692 1408 l 1
EndSplineSet
EndChar

StartChar: t
Encoding: 116 116 47
Width: 1296
Flags: HW
LayerCount: 2
Fore
SplineSet
1556 1408 m 1
 1556 1280 l 1
 1556 1152 l 1
 1428 1152 l 1
 1428 1280 l 1
 1300 1280 l 1
 1172 1280 l 1
 1044 1280 l 1
 1044 1152 l 1
 1044 1024 l 1
 1044 896 l 1
 916 896 l 1
 916 768 l 1
 916 640 l 1
 916 512 l 1
 916 384 l 1
 788 384 l 1
 788 256 l 1
 788 128 l 1
 916 128 l 1
 916 0 l 1
 788 0 l 1
 660 0 l 1
 532 0 l 1
 404 0 l 1
 276 0 l 1
 276 128 l 1
 404 128 l 1
 532 128 l 1
 532 256 l 1
 532 384 l 1
 532 512 l 1
 660 512 l 1
 660 640 l 1
 660 768 l 1
 660 896 l 1
 660 1024 l 1
 788 1024 l 1
 788 1152 l 1
 788 1280 l 1
 660 1280 l 1
 532 1280 l 1
 404 1280 l 1
 404 1152 l 1
 276 1152 l 1
 276 1280 l 1
 276 1408 l 1
 404 1408 l 1
 532 1408 l 1
 660 1408 l 1
 788 1408 l 1
 916 1408 l 1
 1044 1408 l 1
 1172 1408 l 1
 1300 1408 l 1
 1428 1408 l 1
 1556 1408 l 1
EndSplineSet
EndChar

StartChar: u
Encoding: 117 117 48
Width: 1428
Flags: HW
LayerCount: 2
Fore
SplineSet
792 0 m 1
 920 0 l 1
 1048 0 l 1
 1048 128 l 1
 920 128 l 1
 792 128 l 1
 664 128 l 1
 536 128 l 1
 536 256 l 1
 536 384 l 1
 536 512 l 1
 536 640 l 1
 536 768 l 1
 536 896 l 1
 664 896 l 1
 664 1024 l 1
 664 1152 l 1
 664 1280 l 1
 792 1280 l 1
 920 1280 l 1
 920 1408 l 1
 792 1408 l 1
 664 1408 l 1
 536 1408 l 1
 408 1408 l 1
 280 1408 l 1
 280 1280 l 1
 408 1280 l 1
 408 1152 l 1
 408 1024 l 1
 408 896 l 1
 280 896 l 1
 280 768 l 1
 280 640 l 1
 280 512 l 1
 280 384 l 1
 152 384 l 1
 152 256 l 1
 280 256 l 1
 280 128 l 1
 280 0 l 1
 408 0 l 1
 536 0 l 1
 664 0 l 1
 792 0 l 1
1048 256 m 1
 1048 128 l 1
 1176 128 l 1
 1176 256 l 1
 1304 256 l 1
 1304 384 l 1
 1304 512 l 1
 1304 640 l 1
 1432 640 l 1
 1432 768 l 1
 1432 896 l 1
 1432 1024 l 1
 1432 1152 l 1
 1560 1152 l 1
 1560 1280 l 1
 1688 1280 l 1
 1688 1408 l 1
 1560 1408 l 1
 1432 1408 l 1
 1304 1408 l 1
 1176 1408 l 1
 1176 1280 l 1
 1304 1280 l 1
 1304 1152 l 1
 1304 1024 l 1
 1304 896 l 1
 1304 768 l 1
 1176 768 l 1
 1176 640 l 1
 1176 512 l 1
 1176 384 l 1
 1048 384 l 1
 1048 256 l 1
EndSplineSet
EndChar

StartChar: w
Encoding: 119 119 49
Width: 1812
Flags: HW
LayerCount: 2
Fore
SplineSet
280 1408 m 1
 280 1280 l 1
 408 1280 l 1
 408 1152 l 1
 408 1024 l 1
 408 896 l 1
 408 768 l 1
 408 640 l 1
 408 512 l 1
 408 384 l 1
 408 256 l 1
 408 128 l 1
 408 0 l 1
 536 0 l 1
 536 128 l 1
 664 128 l 1
 664 256 l 1
 664 384 l 1
 536 384 l 1
 536 512 l 1
 536 640 l 1
 536 768 l 1
 664 768 l 1
 664 896 l 1
 664 1024 l 1
 664 1152 l 1
 664 1280 l 1
 792 1280 l 1
 792 1408 l 1
 664 1408 l 1
 536 1408 l 1
 408 1408 l 1
 280 1408 l 1
664 640 m 1
 664 512 l 1
 664 384 l 1
 792 384 l 1
 792 512 l 1
 792 640 l 1
 664 640 l 1
792 896 m 1
 792 768 l 1
 792 640 l 1
 920 640 l 1
 920 768 l 1
 1048 768 l 1
 1048 640 l 1
 1048 512 l 1
 1048 384 l 1
 1048 256 l 1
 1048 128 l 1
 1048 0 l 1
 1176 0 l 1
 1304 0 l 1
 1304 128 l 1
 1304 256 l 1
 1432 256 l 1
 1432 384 l 1
 1304 384 l 1
 1304 512 l 1
 1304 640 l 1
 1304 768 l 1
 1304 896 l 1
 1304 1024 l 1
 1304 1152 l 1
 1304 1280 l 1
 1304 1408 l 1
 1176 1408 l 1
 1176 1280 l 1
 1048 1280 l 1
 1048 1152 l 1
 1048 1024 l 1
 1176 1024 l 1
 1176 896 l 1
 1048 896 l 1
 1048 1024 l 1
 920 1024 l 1
 920 896 l 1
 792 896 l 1
1432 640 m 1
 1432 512 l 1
 1432 384 l 1
 1560 384 l 1
 1560 512 l 1
 1560 640 l 1
 1432 640 l 1
1560 896 m 1
 1560 768 l 1
 1560 640 l 1
 1688 640 l 1
 1688 768 l 1
 1688 896 l 1
 1560 896 l 1
1688 1408 m 1
 1688 1280 l 1
 1816 1280 l 1
 1816 1152 l 1
 1944 1152 l 1
 1944 1280 l 1
 2072 1280 l 1
 2072 1408 l 1
 1944 1408 l 1
 1816 1408 l 1
 1688 1408 l 1
1688 1024 m 1
 1688 896 l 1
 1816 896 l 1
 1816 1024 l 1
 1816 1152 l 1
 1688 1152 l 1
 1688 1024 l 1
EndSplineSet
EndChar

StartChar: x
Encoding: 120 120 50
Width: 1212
Flags: HW
LayerCount: 2
Fore
SplineSet
48 128 m 1
 48 0 l 1
 176 0 l 1
 304 0 l 1
 304 128 l 1
 304 256 l 1
 176 256 l 1
 176 128 l 1
 48 128 l 1
304 1408 m 1
 304 1280 l 1
 432 1280 l 1
 432 1152 l 1
 432 1024 l 1
 560 1024 l 1
 560 896 l 1
 560 768 l 1
 688 768 l 1
 688 640 l 1
 560 640 l 1
 560 512 l 1
 688 512 l 1
 688 384 l 1
 816 384 l 1
 816 256 l 1
 816 128 l 1
 688 128 l 1
 688 0 l 1
 816 0 l 1
 944 0 l 1
 1072 0 l 1
 1200 0 l 1
 1200 128 l 1
 1072 128 l 1
 1072 256 l 1
 1072 384 l 1
 1072 512 l 1
 944 512 l 1
 944 640 l 1
 944 768 l 1
 944 896 l 1
 816 896 l 1
 816 1024 l 1
 816 1152 l 1
 688 1152 l 1
 688 1280 l 1
 816 1280 l 1
 816 1408 l 1
 688 1408 l 1
 560 1408 l 1
 432 1408 l 1
 304 1408 l 1
304 384 m 1
 304 256 l 1
 432 256 l 1
 432 384 l 1
 304 384 l 1
432 512 m 1
 432 384 l 1
 560 384 l 1
 560 512 l 1
 432 512 l 1
944 1024 m 1
 944 896 l 1
 1072 896 l 1
 1072 1024 l 1
 944 1024 l 1
1072 1408 m 1
 1072 1280 l 1
 1200 1280 l 1
 1200 1152 l 1
 1328 1152 l 1
 1328 1280 l 1
 1456 1280 l 1
 1456 1408 l 1
 1328 1408 l 1
 1200 1408 l 1
 1072 1408 l 1
1072 1024 m 1
 1200 1024 l 1
 1200 1152 l 1
 1072 1152 l 1
 1072 1024 l 1
EndSplineSet
EndChar

StartChar: y
Encoding: 121 121 51
Width: 1312
Flags: HW
LayerCount: 2
Fore
SplineSet
284 1408 m 1
 284 1280 l 1
 412 1280 l 1
 412 1152 l 1
 412 1024 l 1
 412 896 l 1
 540 896 l 1
 540 768 l 1
 540 640 l 1
 540 512 l 1
 540 384 l 1
 412 384 l 1
 412 256 l 1
 412 128 l 1
 284 128 l 1
 284 0 l 1
 412 0 l 1
 540 0 l 1
 668 0 l 1
 796 0 l 1
 796 128 l 1
 796 256 l 1
 796 384 l 1
 796 512 l 1
 796 640 l 1
 924 640 l 1
 924 768 l 1
 1052 768 l 1
 1052 896 l 1
 1180 896 l 1
 1180 1024 l 1
 1180 1152 l 1
 1052 1152 l 1
 1052 1024 l 1
 924 1024 l 1
 924 896 l 1
 796 896 l 1
 796 1024 l 1
 668 1024 l 1
 668 1152 l 1
 668 1280 l 1
 796 1280 l 1
 796 1408 l 1
 668 1408 l 1
 540 1408 l 1
 412 1408 l 1
 284 1408 l 1
1052 1280 m 1
 1180 1280 l 1
 1180 1152 l 1
 1308 1152 l 1
 1308 1280 l 1
 1436 1280 l 1
 1564 1280 l 1
 1564 1408 l 1
 1436 1408 l 1
 1308 1408 l 1
 1180 1408 l 1
 1052 1408 l 1
 1052 1280 l 1
EndSplineSet
EndChar

StartChar: z
Encoding: 122 122 52
Width: 1192
Flags: HW
LayerCount: 2
Fore
SplineSet
32 0 m 1
 32 128 l 1
 160 128 l 1
 160 256 l 1
 288 256 l 1
 288 384 l 1
 288 512 l 1
 416 512 l 1
 416 640 l 1
 544 640 l 1
 544 768 l 1
 672 768 l 1
 672 896 l 1
 800 896 l 1
 800 1024 l 1
 928 1024 l 1
 928 1152 l 1
 1056 1152 l 1
 1056 1280 l 1
 928 1280 l 1
 800 1280 l 1
 672 1280 l 1
 544 1280 l 1
 544 1152 l 1
 416 1152 l 1
 416 1280 l 1
 416 1408 l 1
 544 1408 l 1
 672 1408 l 1
 800 1408 l 1
 928 1408 l 1
 1056 1408 l 1
 1184 1408 l 1
 1312 1408 l 1
 1440 1408 l 1
 1440 1280 l 1
 1312 1280 l 1
 1312 1152 l 1
 1184 1152 l 1
 1184 1024 l 1
 1056 1024 l 1
 1056 896 l 1
 1056 768 l 1
 928 768 l 1
 928 640 l 1
 800 640 l 1
 800 512 l 1
 672 512 l 1
 672 384 l 1
 544 384 l 1
 544 256 l 1
 416 256 l 1
 416 128 l 1
 544 128 l 1
 672 128 l 1
 800 128 l 1
 928 128 l 1
 1056 128 l 1
 1056 256 l 1
 1184 256 l 1
 1184 128 l 1
 1184 0 l 1
 1056 0 l 1
 928 0 l 1
 800 0 l 1
 672 0 l 1
 544 0 l 1
 416 0 l 1
 288 0 l 1
 160 0 l 1
 32 0 l 1
EndSplineSet
EndChar
